<svg width="16" height="16" viewBox="0 0 16 16" fill="none" xmlns="http://www.w3.org/2000/svg">
<mask id="mask0_543_68" style="mask-type:alpha" maskUnits="userSpaceOnUse" x="0" y="0" width="16" height="16">
<rect width="16" height="16" rx="8" fill="black"/>
</mask>
<g mask="url(#mask0_543_68)">
<rect width="16" height="16" rx="8" fill="black"/>
<path d="M12.9965 5.26577L12.8422 4.6932C12.8368 4.67331 12.8264 4.65504 12.8118 4.64008C12.7973 4.62512 12.7791 4.61395 12.759 4.60759C12.7388 4.60123 12.7174 4.59989 12.6966 4.60368C12.6757 4.60748 12.6562 4.61629 12.6398 4.62931L12.2427 4.93648L12.3616 3.76432C12.3647 3.73471 12.3566 3.70502 12.3389 3.68077L11.8785 3.05168C11.8667 3.03513 11.8507 3.02173 11.8322 3.01271C11.8136 3.0037 11.793 2.99935 11.7723 3.00008C11.7516 3.00052 11.7313 3.0059 11.7132 3.01576C11.6951 3.02561 11.6798 3.03964 11.6686 3.0566L10.4343 4.93894L10.3711 4.91437H10.3533H10.3255H10.2952H10.28L10.2547 4.92911H10.2395L9.53638 5.57786C9.52734 5.58654 9.51967 5.59648 9.51362 5.60734L9.21516 6.12831L7.6394 6.94661C7.61718 6.95762 7.59881 6.97478 7.5866 6.99591C7.57439 7.01704 7.56888 7.04121 7.57077 7.06538C7.57267 7.08954 7.58187 7.11262 7.59723 7.13172C7.61259 7.15081 7.63342 7.16507 7.6571 7.17269L8.90658 7.58552L8.40072 8.50212L7.15377 9.18281L1.85486 10.3157H1.83969L0.767258 10.9005L0.739435 10.9202L-0.970379 12.6084L-3.89679 13.1392C-3.92087 13.1436 -3.94312 13.1546 -3.96084 13.1711C-3.97857 13.1875 -3.99099 13.2086 -3.99662 13.2317C-4.00225 13.2549 -4.00083 13.2791 -3.99253 13.3015C-3.98424 13.3239 -3.96943 13.3435 -3.94991 13.3579L-2.7156 14.2794C-2.69559 14.2932 -2.67183 14.3009 -2.64731 14.3015H-0.0421221C-0.0252328 14.2998 -0.00887563 14.2948 0.00593494 14.2868H0.0211107H0.0362869L1.1416 13.1859L1.39453 14.1885L0.370156 16.3608C0.369833 16.3657 0.369833 16.3706 0.370156 16.3755C0.367651 16.3893 0.367651 16.4035 0.370156 16.4173C0.370156 16.4173 0.370156 16.4173 0.370156 16.4173L0.68379 18.5011C0.683561 18.5052 0.683561 18.5093 0.68379 18.5134C0.683453 18.5183 0.683453 18.5233 0.68379 18.5282C0.682746 18.5372 0.682746 18.5462 0.68379 18.5552L1.03284 18.9558C1.04459 18.9695 1.05928 18.9805 1.07587 18.9882C1.09247 18.9958 1.11058 18.9998 1.12895 19H2.45431C2.47644 18.9999 2.49816 18.9941 2.51727 18.9833C2.53639 18.9724 2.55225 18.9569 2.56326 18.9382C2.57427 18.9196 2.58005 18.8984 2.58001 18.8769C2.57998 18.8554 2.57414 18.8343 2.56307 18.8157L2.34302 18.4471C2.32927 18.4238 2.30791 18.4056 2.28232 18.3955L1.69551 18.1497L1.66769 16.6753L2.93235 15.2009L2.49478 16.3411C2.48886 16.362 2.48886 16.3841 2.49478 16.405C2.49478 16.405 2.49478 16.405 2.49478 16.405L3.2131 18.9164C3.22037 18.9375 3.2335 18.9562 3.25104 18.9705V18.9705C3.27019 18.9815 3.29201 18.9875 3.31427 18.9877H4.73069C4.74781 18.9862 4.76444 18.9813 4.77956 18.9734C4.79468 18.9654 4.80797 18.9546 4.81862 18.9415C4.82927 18.9284 4.83706 18.9133 4.84151 18.8971C4.84596 18.881 4.84698 18.8642 4.84451 18.8476L4.65481 18.3758C4.64318 18.3467 4.62057 18.323 4.59158 18.3095L3.92131 17.9998L3.66838 16.7712L4.77369 15.2795C4.7797 15.2719 4.78479 15.2637 4.78886 15.255L5.10503 14.4981L7.23218 14.4145V18.1768C7.23009 18.1898 7.23009 18.2031 7.23218 18.2161L7.48511 18.9238C7.49308 18.9452 7.50711 18.9639 7.52558 18.9779C7.54708 18.9925 7.57271 19.0002 7.59893 19H8.73712C8.75641 19.0002 8.77548 18.9961 8.79288 18.988C8.81028 18.9799 8.82554 18.968 8.8375 18.9533C8.84947 18.9386 8.85781 18.9214 8.86189 18.9031C8.86597 18.8848 8.86568 18.8658 8.86105 18.8476L8.70424 18.3881C8.69631 18.3647 8.68133 18.3442 8.66124 18.3291L8.29955 18.0588V17.2086L8.82817 15.2156L9.0811 14.8348L8.82817 15.685C8.82789 15.6899 8.82789 15.6948 8.82817 15.6998C8.82774 15.7055 8.82774 15.7112 8.82817 15.717C8.82817 15.717 8.82817 15.717 8.82817 15.717L8.92429 18.2677C8.9251 18.2915 8.93301 18.3145 8.94705 18.334L9.38968 18.9484C9.39838 18.9581 9.40863 18.9664 9.42003 18.973H9.43268C9.44937 18.9762 9.46657 18.9762 9.48326 18.973H10.8744C10.8965 18.9728 10.9182 18.9671 10.9374 18.9562C10.9565 18.9454 10.9723 18.9299 10.9833 18.9112C10.9943 18.8926 11.0001 18.8714 11.0001 18.8499C11.0001 18.8284 10.9942 18.8073 10.9831 18.7887L10.7302 18.3586C10.7168 18.3359 10.6965 18.3179 10.672 18.307L9.96889 18.0072L10.1131 17.0046L10.7252 14.4244L11.2943 13.5913L12.2124 11.4092V11.392L12.5893 9.36712C12.5897 9.36139 12.5897 9.35564 12.5893 9.34991V7.38402L12.9737 6.06933C12.9823 6.04029 12.9795 6.0092 12.966 5.98201C12.9525 5.95481 12.9291 5.93341 12.9004 5.92189L12.8245 5.8924L12.9939 5.33212C13.001 5.31065 13.0019 5.28769 12.9965 5.26577V5.26577ZM9.72861 5.75724L10.3154 5.21171L12.3389 7.42334V9.1435L9.22022 7.47249L9.42256 6.29049L9.72861 5.75724ZM8.01879 7.03262L9.14687 6.45268L8.99258 7.35453L8.01879 7.03262ZM9.14181 7.68628L12.3338 9.40643L12.0075 11.1462L8.65112 8.55864L9.14181 7.68628ZM10.4823 14.3212L9.17722 15.3754L9.58444 14.0754L10.4849 13.1687V14.3212H10.4823ZM10.5203 12.7779L9.50856 13.7977L7.36117 9.37449L8.48166 8.76506L11.9089 11.3944L10.5203 12.7779ZM5.00891 14.2524L3.49133 14.444L4.77622 10.1461L7.14871 14.1688L5.00891 14.2524ZM1.10366 12.8615L0.430859 13.5324L1.46029 11.5321L1.10366 12.8615ZM-0.26976 14.0607H-2.29321L-0.955203 12.9303L-0.26976 14.0607ZM1.98386 10.5393L4.29059 10.0478L1.44258 12.5543L1.98386 10.5393ZM7.29541 13.955L4.92292 9.91019L7.12342 9.43838L8.01879 11.306L7.29541 13.955ZM0.883606 11.1217L1.58423 10.7383L-0.0572978 13.9329L-0.773093 12.7632L0.883606 11.1217ZM-1.36242 12.95L-2.64478 14.0337L-3.57051 13.3431L-1.36242 12.95ZM1.35912 12.9745L4.47776 10.21L3.2131 14.4244L1.63734 14.0803L1.35912 12.9745ZM1.4097 16.7466L1.44258 18.1571L0.916487 18.3218L0.64838 16.5574L1.4097 16.7466ZM2.23173 18.769H1.22L1.03284 18.5528L1.56652 18.3857L2.14067 18.6019L2.23173 18.769ZM1.48811 16.5131L0.671144 16.3215L1.60699 14.3359L3.07652 14.6677L1.48811 16.5131ZM3.39774 14.7045L4.61434 14.5522L2.902 15.9971L3.39774 14.7045ZM4.54099 18.769H3.55456L3.86061 18.253L4.43729 18.5208L4.54099 18.769ZM3.42303 16.6606C3.41322 16.6744 3.40637 16.69 3.40289 16.7065C3.39942 16.723 3.39939 16.7399 3.4028 16.7564L3.67849 18.0613L3.37751 18.5675L2.75277 16.4345L4.69528 14.7954L4.55111 15.137L3.42303 16.6606ZM8.48166 18.4962L8.57271 18.7592H7.84933L8.19837 18.2898L8.48166 18.4962ZM8.05673 17.1619C8.05527 17.1725 8.05527 17.1832 8.05673 17.1938V18.076L7.65457 18.6191L7.48764 18.1547V15.8005L8.52466 15.3729L8.05673 17.1619ZM8.63089 15.0657L7.48258 15.5326V14.2917L8.19837 11.6549L9.32898 13.9919L8.63089 15.0657ZM10.5253 18.5478L10.6493 18.7592H9.66285L9.88037 18.2677L10.5253 18.5478ZM9.8576 16.9923L9.70079 18.0809L9.44785 18.6338L9.15445 18.2284L9.0634 15.771L10.4014 14.6922L9.8576 16.9923ZM11.0793 13.4709L10.7429 13.9624V12.9008L11.7369 11.8982L11.0793 13.4709ZM12.4223 7.11617L10.796 5.34932L12.6171 6.08653L12.7081 6.12339L12.4223 7.11617ZM10.6796 5.03724L11.79 3.34657L12.1137 3.79135L11.9696 5.20925C11.9671 5.23332 11.972 5.25756 11.9836 5.27894C11.9953 5.30032 12.0132 5.31788 12.0351 5.32942C12.0569 5.34097 12.0818 5.34598 12.1066 5.34384C12.1314 5.3417 12.155 5.33249 12.1745 5.31738L12.655 4.9414L12.7511 5.29772L12.5716 5.79902L10.6796 5.03724Z" fill="white"/>
</g>
</svg>
