<svg width="80" height="80" viewBox="0 0 80 80" fill="none" xmlns="http://www.w3.org/2000/svg">
<path d="M69.0214 17.8793L68.454 15.7119C68.4342 15.6366 68.3958 15.5674 68.3423 15.5108C68.2888 15.4542 68.222 15.4119 68.1479 15.3878C68.0739 15.3638 67.9949 15.3587 67.9184 15.373C67.8418 15.3874 67.7701 15.4208 67.7098 15.47L66.2493 16.6328L66.6866 12.1956C66.6979 12.0835 66.6681 11.9712 66.6028 11.8793L64.9098 9.49795C64.8663 9.43528 64.8077 9.38456 64.7394 9.35043C64.6711 9.3163 64.5954 9.29985 64.5191 9.3026C64.4429 9.30427 64.3682 9.32465 64.3017 9.36196C64.2352 9.39927 64.1789 9.45236 64.1377 9.51656L59.5982 16.6421L59.3656 16.5491H59.3005H59.1982H59.0866H59.0307L58.9377 16.6049H58.8819L56.2959 19.0607C56.2626 19.0936 56.2344 19.1312 56.2121 19.1724L55.1145 21.1445L49.3191 24.2421C49.2374 24.2838 49.1698 24.3488 49.1249 24.4288C49.08 24.5088 49.0598 24.6002 49.0667 24.6917C49.0737 24.7832 49.1076 24.8706 49.164 24.9429C49.2205 25.0151 49.2971 25.0691 49.3842 25.098L53.9796 26.6607L52.1191 30.1305L47.5331 32.7073L28.0447 36.9956H27.9889L24.0447 39.2096L23.9424 39.284L17.654 45.6747L6.89121 47.684C6.80265 47.7006 6.72081 47.7425 6.65564 47.8047C6.59046 47.8669 6.54475 47.9467 6.52406 48.0344C6.50337 48.1221 6.50859 48.2139 6.53909 48.2986C6.56959 48.3834 6.62405 48.4575 6.69586 48.5119L11.2354 52.0003C11.309 52.0524 11.3964 52.0816 11.4866 52.084H21.0679C21.1301 52.0777 21.1902 52.0587 21.2447 52.0282H21.3005H21.3563L25.4214 47.8607L26.3517 51.6561L22.5842 59.8793C22.583 59.8979 22.583 59.9166 22.5842 59.9352C22.575 59.9875 22.575 60.041 22.5842 60.0933C22.5842 60.0933 22.5842 60.0933 22.5842 60.0933L23.7377 67.9817C23.7369 67.9972 23.7369 68.0127 23.7377 68.0282C23.7365 68.0468 23.7365 68.0654 23.7377 68.084C23.7339 68.118 23.7339 68.1523 23.7377 68.1863L25.0214 69.7026C25.0647 69.7545 25.1187 69.7964 25.1797 69.8253C25.2408 69.8542 25.3074 69.8695 25.3749 69.87H30.2493C30.3308 69.8696 30.4106 69.8477 30.4809 69.8067C30.5512 69.7657 30.6096 69.7069 30.6501 69.6363C30.6905 69.5656 30.7118 69.4856 30.7117 69.4042C30.7115 69.3228 30.6901 69.2429 30.6493 69.1724L29.84 67.777C29.7895 67.6888 29.7109 67.6201 29.6168 67.5817L27.4586 66.6514L27.3563 61.07L32.0075 55.4887L30.3982 59.8049C30.3764 59.8841 30.3764 59.9676 30.3982 60.0468C30.3982 60.0468 30.3982 60.0468 30.3982 60.0468L33.04 69.5538C33.0668 69.6336 33.1151 69.7044 33.1796 69.7584V69.7584C33.25 69.8002 33.3302 69.8227 33.4121 69.8235H38.6214C38.6844 69.8179 38.7456 69.7994 38.8012 69.7693C38.8568 69.7392 38.9057 69.6981 38.9448 69.6485C38.984 69.5989 39.0127 69.5418 39.029 69.4807C39.0454 69.4196 39.0492 69.3559 39.04 69.2933L38.3424 67.5073C38.2996 67.397 38.2164 67.3072 38.1098 67.2561L35.6447 66.084L34.7145 61.4328L38.7796 55.7863C38.8017 55.7576 38.8204 55.7263 38.8354 55.6933L39.9982 52.8282L47.8214 52.5119V66.7538C47.8138 66.8031 47.8138 66.8533 47.8214 66.9026L48.7517 69.5817C48.781 69.6626 48.8326 69.7335 48.9005 69.7863C48.9796 69.8415 49.0739 69.8708 49.1703 69.87H53.3563C53.4273 69.8707 53.4974 69.8551 53.5614 69.8245C53.6254 69.7939 53.6815 69.749 53.7255 69.6933C53.7695 69.6377 53.8002 69.5727 53.8152 69.5034C53.8302 69.434 53.8292 69.3622 53.8121 69.2933L53.2354 67.5538C53.2063 67.4652 53.1512 67.3874 53.0773 67.3305L51.747 66.3073V63.0886L53.6912 55.5445L54.6214 54.1026L53.6912 57.3212C53.6902 57.3398 53.6902 57.3584 53.6912 57.377C53.6896 57.3987 53.6896 57.4205 53.6912 57.4421C53.6912 57.4421 53.6912 57.4421 53.6912 57.4421L54.0447 67.0979C54.0477 67.188 54.0768 67.2753 54.1284 67.3491L55.7563 69.6747C55.7883 69.7115 55.826 69.7429 55.868 69.7677H55.9145C55.9759 69.78 56.0391 69.78 56.1005 69.7677H61.2168C61.2982 69.7672 61.3781 69.7454 61.4484 69.7044C61.5187 69.6633 61.577 69.6046 61.6175 69.5339C61.658 69.4633 61.6792 69.3833 61.6791 69.3019C61.679 69.2205 61.6575 69.1405 61.6168 69.07L60.6866 67.4421C60.6374 67.3563 60.5625 67.288 60.4726 67.2468L57.8866 66.1119L58.4168 62.3166L60.6679 52.5491L62.761 49.3956L66.1377 41.1352V41.07L67.5238 33.4049C67.5254 33.3832 67.5254 33.3615 67.5238 33.3398V25.898L68.9377 20.9212C68.9692 20.8113 68.9591 20.6936 68.9094 20.5906C68.8596 20.4877 68.7737 20.4067 68.668 20.3631L68.3889 20.2514L69.0121 18.1305C69.0382 18.0492 69.0415 17.9623 69.0214 17.8793V17.8793ZM57.0028 19.7398L59.161 17.6747L66.6028 26.0468V32.5584L55.1331 26.2328L55.8773 21.7584L57.0028 19.7398ZM50.7145 24.5677L54.8633 22.3724L54.2959 25.7863L50.7145 24.5677ZM54.8447 27.0421L66.5842 33.5538L65.3842 40.1398L53.04 30.3445L54.8447 27.0421ZM59.7749 52.1584L54.9749 56.1491L56.4726 51.2282L59.7842 47.7956V52.1584H59.7749ZM59.9145 46.3166L56.1935 50.177L48.2959 33.4328L52.4168 31.1259L65.0214 41.0793L59.9145 46.3166ZM39.6447 51.8979L34.0633 52.6235L38.7889 36.3538L47.5145 51.5817L39.6447 51.8979ZM25.2819 46.6328L22.8075 49.1724L26.5935 41.6003L25.2819 46.6328ZM20.2307 51.1724H12.7889L17.7098 46.8933L20.2307 51.1724ZM28.5191 37.8421L37.0028 35.9817L26.5284 45.47L28.5191 37.8421ZM48.054 50.7724L39.3284 35.4607L47.4214 33.6747L50.7145 40.7445L48.054 50.7724ZM24.4726 40.0468L27.0493 38.5956L21.0121 50.6886L18.3796 46.2607L24.4726 40.0468ZM16.2121 46.9677L11.4959 51.07L8.09121 48.4561L16.2121 46.9677ZM26.2214 47.0607L37.6912 36.5956L33.04 52.5491L27.2447 51.2468L26.2214 47.0607ZM26.4075 61.3398L26.5284 66.6793L24.5935 67.3026L23.6075 60.6235L26.4075 61.3398ZM29.4307 68.9956H25.7098L25.0214 68.177L26.9842 67.5445L29.0959 68.3631L29.4307 68.9956ZM26.6959 60.4561L23.6912 59.7305L27.1331 52.2142L32.5377 53.47L26.6959 60.4561ZM33.7191 53.6096L38.1935 53.0328L31.8959 58.5026L33.7191 53.6096ZM37.9238 68.9956H34.2959L35.4214 67.0421L37.5424 68.0561L37.9238 68.9956ZM33.8121 61.0142C33.776 61.0666 33.7509 61.1257 33.7381 61.1881C33.7253 61.2504 33.7252 61.3146 33.7377 61.377L34.7517 66.3166L33.6447 68.2328L31.347 60.1584L38.4912 53.9538L37.961 55.2468L33.8121 61.0142ZM52.4168 67.9631L52.7517 68.9584H50.0912L51.3749 67.1817L52.4168 67.9631ZM50.854 62.9119C50.8486 62.952 50.8486 62.9927 50.854 63.0328V66.3724L49.3749 68.4282L48.761 66.67V57.7584L52.5749 56.1398L50.854 62.9119ZM52.9656 54.977L48.7424 56.7445V52.0468L51.3749 42.0654L55.5331 50.9119L52.9656 54.977ZM59.9331 68.1584L60.3889 68.9584H56.761L57.561 67.0979L59.9331 68.1584ZM57.4773 62.27L56.9005 66.391L55.9703 68.484L54.8912 66.9491L54.5563 57.6468L59.4773 53.5631L57.4773 62.27ZM61.9703 48.9398L60.7331 50.8003V46.7817L64.3889 42.9863L61.9703 48.9398ZM66.9098 24.884L60.9284 18.1956L67.6261 20.9863L67.961 21.1259L66.9098 24.884ZM60.5005 17.0142L64.5842 10.6142L65.7749 12.298L65.2447 17.6654C65.2356 17.7565 65.2536 17.8483 65.2964 17.9292C65.3393 18.0101 65.405 18.0766 65.4855 18.1203C65.566 18.164 65.6575 18.183 65.7487 18.1749C65.8399 18.1668 65.9267 18.1319 65.9982 18.0747L67.7656 16.6514L68.1191 18.0003L67.4587 19.898L60.5005 17.0142Z" fill="currentColor" class="fill-gray-700 dark:fill-gray-300"/>
</svg>
